<svg xmlns="http://www.w3.org/2000/svg" width="256" height="256" viewBox="0 0 256 256">
  <path fill="#fff" d="M128 6a122 122 0 1 0 122 122A122 122 0 0 0 128 6z" opacity=".5"/>
  <circle cx="128" cy="128" r="114.1" fill="none" stroke="#fff" stroke-width="4" stroke-miterlimit="10" opacity=".4"/>
  <path fill="#fff" d="M68 53l13 3.2a17.3 17.3 0 0 1 4.3 1.7 10.9 10.9 0 0 1 3.1 2.6 8.2 8.2 0 0 1 1.7 3.5 9.5 9.5 0 0 1-.2 4.3 7.8 7.8 0 0 1-3.1 4.8 10.7 10.7 0 0 1-5.4 1.8 8.1 8.1 0 0 1 2.9 1.7 8.9 8.9 0 0 1 2 2.6 9.9 9.9 0 0 1 .7 7 9.6 9.6 0 0 1-2 4.3 9.8 9.8 0 0 1-3.6 2.5 13.4 13.4 0 0 1-4.7 1 18.8 18.8 0 0 1-5.3-.6l-12.7-3.2zm-3.1 34l7.4 1.9 2.6.4a7.9 7.9 0 0 0 2.8-.3 6.7 6.7 0 0 0 2.5-1.4 5.7 5.7 0 0 0 1.6-3 6.1 6.1 0 0 0-.9-5.5 9.6 9.6 0 0 0-5.3-3.1l-7.5-1.9zm4.3-17.3l6.9 1.7a12.3 12.3 0 0 0 2.8.4 6.2 6.2 0 0 0 2.4-.4 5.1 5.1 0 0 0 1.9-1.4 5.6 5.6 0 0 0 1.2-2.4 5.4 5.4 0 0 0-4.5-6.9l-7.9-2zm43.5 34l-4.7-1.2 1-3.8h-.1a7.2 7.2 0 0 1-3.9 2.5 10.6 10.6 0 0 1-5.4 0 11.1 11.1 0 0 1-3.3-1.4 8 8 0 0 1-2.4-2.4 8.5 8.5 0 0 1-1.2-3.5 11.7 11.7 0 0 1 .3-4.5l4-16 4.7 1.2-3.8 14.5a8.6 8.6 0 0 0-.3 3.1 5.6 5.6 0 0 0 .8 2.3 4.9 4.9 0 0 0 1.5 1.6 6.9 6.9 0 0 0 2 .9 8 8 0 0 0 2.8.2 5.9 5.9 0 0 0 2.6-.9 7.3 7.3 0 0 0 2.1-2.2 12.2 12.2 0 0 0 1.5-3.6l3.2-12.8 4.7 1.2zm10.4-23.9l5.5 1.4 2.5 21.3h.1l11.9-17.7 5 1.3-19.4 27.3-2.1 2.6a9.2 9.2 0 0 1-2.2 1.9 6.8 6.8 0 0 1-2.6.9 9.3 9.3 0 0 1-3.4-.3l-2.1-.7a7.9 7.9 0 0 1-1.9-1.1l1.7-4.2a7.6 7.6 0 0 0 2.7 1.3 5.4 5.4 0 0 0 1.9.2 3.7 3.7 0 0 0 1.5-.5 5 5 0 0 0 1.2-1.1l1.2-1.5 2.5-3.6zm39.5 23.2a13 13 0 0 1 2.3-4.8 13.7 13.7 0 0 1 3.9-3.4 13.8 13.8 0 0 1 18.8 4.7 13.7 13.7 0 0 1 1.8 4.9 13.1 13.1 0 0 1-.3 5.4 13.4 13.4 0 0 1-6.2 8.3 13.8 13.8 0 0 1-4.9 1.7 14.1 14.1 0 0 1-10.4-2.6 13.7 13.7 0 0 1-3.5-3.8 13.3 13.3 0 0 1-1.5-10.2zm5 1.3a10.5 10.5 0 0 0-.3 3.6 8.1 8.1 0 0 0 .9 3.1 7.8 7.8 0 0 0 2.1 2.4 9.5 9.5 0 0 0 6.8 1.7 7.7 7.7 0 0 0 3-1.1 8.1 8.1 0 0 0 2.3-2.3 11.2 11.2 0 0 0 1.8-7 8.2 8.2 0 0 0-.9-3.1 7.8 7.8 0 0 0-2.1-2.4 9.5 9.5 0 0 0-6.8-1.7 7.8 7.8 0 0 0-3 1.1 8.1 8.1 0 0 0-2.3 2.3 10.5 10.5 0 0 0-1.5 3.3zm30.5-5.7l4.7 1.2-1 3.8h.1a7.2 7.2 0 0 1 3.9-2.5 10.6 10.6 0 0 1 5.4 0 11.1 11.1 0 0 1 3.3 1.4 8 8 0 0 1 2.5 2.4 8.5 8.5 0 0 1 1.2 3.5 11.7 11.7 0 0 1-.3 4.5l-4 16-4.7-1.2 3.7-14.7a8.6 8.6 0 0 0 .3-3.1 5.6 5.6 0 0 0-.8-2.3 4.9 4.9 0 0 0-1.5-1.6 6.9 6.9 0 0 0-2-.9 8 8 0 0 0-2.9-.2 5.9 5.9 0 0 0-2.6.9 7.3 7.3 0 0 0-2.1 2.2 12.2 12.2 0 0 0-1.5 3.6l-3.2 12.8-4.7-1.2zM50.2 114l20 5a38.2 38.2 0 0 1 10.3 4 29.3 29.3 0 0 1 7 5.7 24.1 24.1 0 0 1 4.3 6.7 29.3 29.3 0 0 1 2 7 32.1 32.1 0 0 1 .3 6.8 34.2 34.2 0 0 1-.9 6 29.7 29.7 0 0 1-4.7 10.1 27.7 27.7 0 0 1-8.3 7.6 30.4 30.4 0 0 1-11.4 4 36.3 36.3 0 0 1-14.2-1l-18.7-4.7zm-4.8 52l9.8 2.5a33.1 33.1 0 0 0 9.7 1 23.4 23.4 0 0 0 8.7-2.1 19.8 19.8 0 0 0 6.9-5.4 21.8 21.8 0 0 0 4.3-8.9 28.8 28.8 0 0 0 .7-6.7 19.9 19.9 0 0 0-1.6-7.8 20.5 20.5 0 0 0-5.4-7.3q-3.8-3.4-10.8-5.1L56 123.3zm58.2-38.6l9 2.3 5.1 50.8h.2l29.2-42.2 8.5 2.1-36.9 51.6-7.3-1.8zm57.6 14.4l20 5a38.2 38.2 0 0 1 10.3 4 29.2 29.2 0 0 1 7 5.7 24.1 24.1 0 0 1 4.3 6.7 29.3 29.3 0 0 1 2 7 32.1 32.1 0 0 1 .3 6.8 34.2 34.2 0 0 1-.9 6 29.7 29.7 0 0 1-4.7 10.1 27.7 27.7 0 0 1-8.3 7.6 30.4 30.4 0 0 1-11.4 4 36.3 36.3 0 0 1-14.2-1l-18.7-4.7zm-4.8 52l9.8 2.5a33.1 33.1 0 0 0 9.7 1 23.4 23.4 0 0 0 8.7-2.1 19.8 19.8 0 0 0 6.9-5.4 21.9 21.9 0 0 0 4.3-8.9 28.7 28.7 0 0 0 .7-6.7 19.9 19.9 0 0 0-1.6-7.8 20.5 20.5 0 0 0-5.4-7.3q-3.8-3.4-10.8-5.1l-11.6-3z"/>
</svg>
