<svg xmlns="http://www.w3.org/2000/svg">
  <symbol id="audio-mute" viewbox="0 0 24 24">
    <path transform="scale(1.2 1.2)" d="M22 1.269L3.545 24 2 22.731 5.841 18H4.014V8H9v6.091l2.014-2.463V8l5.365-2.981L20.455 0 22 1.269zM11.014 17.195V18L20 23V6.127l-8.986 11.068z"/>
  </symbol>
  <symbol id="audio-play" viewBox="0 0 24 24">
    <path d="M6 7l8-5v20l-8-5V7zM0 17h4V7H0v10zM20.264 3.736l-1.497 1.497C20.614 7.016 21.75 9.39 21.75 12c0 2.61-1.135 4.984-2.983 6.766l1.498 1.498C22.57 18.111 24 15.209 24 12s-1.43-6.11-3.736-8.264zM19.775 12c0-2.084-.915-3.967-2.384-5.391l-1.503 1.503c1.011 1.049 1.637 2.401 1.637 3.888 0 1.488-.623 2.841-1.634 3.891l1.503 1.503c1.468-1.424 2.381-3.309 2.381-5.394z"/>
  </symbol>
  <symbol id="fullscreen-exit" viewBox="0 0 24 24">
    <path d="M16.586 19.414L14 22v-8h8l-2.586 2.586L24 21.172 21.172 24l-4.586-4.586zM2.828 0L0 2.828l4.586 4.586L2 10h8V2L7.414 4.586 2.828 0zm16.586 7.414L22 10h-8V2l2.586 2.586L21.172 0 24 2.828l-4.586 4.586zM0 21.172L2.828 24l4.586-4.586L10 22v-8H2l2.586 2.586L0 21.172z"/>
  </symbol>
  <symbol id="fullscreen-start" viewBox="0 0 24 24">
    <path d="M24 9h-4V4h-5V0h9v9zm-9 15v-4h5v-5h4v9h-9zM0 15h4v5h5v4H0v-9zM9 0v4H4v5H0V0h9z"/>
  </symbol>
  <symbol id="slideshow-play" viewBox="0 0 24 24">
    <path d="M3 22V2l18 10L3 22z"/>
  </symbol>
  <symbol id="slideshow-pause" viewBox="0 0 24 24">
    <path d="M11 22H7V2h4v20zm6-20h-4v20h4V2z"/>
  </symbol>
  <symbol id="slideshow-play-big" viewBox="0 0 24 24">
    <path d="M12 2c5.514 0 10 4.486 10 10s-4.486 10-10 10S2 17.514 2 12 6.486 2 12 2zm0-2C5.373 0 0 5.373 0 12s5.373 12 12 12 12-5.373 12-12S18.627 0 12 0zM9 17V7l9 5.146L9 17z"/>
  </symbol>
  <symbol id="twitter" viewBox="0 0 24 24">
    <path d="M12 0C5.373 0 0 5.373 0 12s5.373 12 12 12 12-5.373 12-12S18.627 0 12 0zm6.066 9.645c.183 4.04-2.83 8.544-8.164 8.544A8.127 8.127 0 0 1 5.5 16.898a5.778 5.778 0 0 0 4.252-1.189 2.879 2.879 0 0 1-2.684-1.995 2.88 2.88 0 0 0 1.298-.049c-1.381-.278-2.335-1.522-2.304-2.853.388.215.83.344 1.301.359a2.877 2.877 0 0 1-.889-3.835 8.153 8.153 0 0 0 5.92 3.001 2.876 2.876 0 0 1 4.895-2.62 5.73 5.73 0 0 0 1.824-.697 2.884 2.884 0 0 1-1.263 1.589 5.73 5.73 0 0 0 1.649-.453 5.765 5.765 0 0 1-1.433 1.489z"/>
  </symbol>
  <symbol id="facebook" viewBox="0 0 24 24">
    <path d="M12 0C5.373 0 0 5.373 0 12s5.373 12 12 12 12-5.373 12-12S18.627 0 12 0zm3 8h-1.35c-.538 0-.65.221-.65.778V10h2l-.209 2H13v7h-3v-7H8v-2h2V7.692C10 5.923 10.931 5 13.029 5H15v3z"/>
  </symbol>
</svg>